<svg xmlns="http://www.w3.org/2000/svg" width="1200" height="520" viewBox="0 0 1200 520">
  <rect width="1200" height="520" fill="#f8fafc"/>
  <text x="80" y="78" fill="#0f172a" font-size="38" font-weight="700" font-family="Microsoft YaHei, sans-serif">Codex 更新博客的安全流程</text>
  <text x="82" y="118" fill="#64748b" font-size="22" font-family="Microsoft YaHei, sans-serif">先生成、再预览、后发布，把主动权留给自己。</text>
  <g font-family="Microsoft YaHei, sans-serif" font-size="22" font-weight="700">
    <rect x="80" y="190" width="170" height="100" rx="16" fill="#0f766e"/>
    <text x="120" y="252" fill="#ffffff">提出主题</text>
    <rect x="305" y="190" width="170" height="100" rx="16" fill="#2563eb"/>
    <text x="345" y="252" fill="#ffffff">生成草稿</text>
    <rect x="530" y="190" width="170" height="100" rx="16" fill="#7c3aed"/>
    <text x="570" y="252" fill="#ffffff">本地预览</text>
    <rect x="755" y="190" width="170" height="100" rx="16" fill="#ea580c"/>
    <text x="795" y="252" fill="#ffffff">确认发布</text>
    <rect x="980" y="190" width="170" height="100" rx="16" fill="#334155"/>
    <text x="1020" y="252" fill="#ffffff">推送上线</text>
  </g>
  <g fill="none" stroke="#94a3b8" stroke-width="5" stroke-linecap="round" stroke-linejoin="round">
    <path d="M255 240 H298"/>
    <path d="M480 240 H523"/>
    <path d="M705 240 H748"/>
    <path d="M930 240 H973"/>
    <path d="M292 230 L304 240 L292 250"/>
    <path d="M517 230 L529 240 L517 250"/>
    <path d="M742 230 L754 240 L742 250"/>
    <path d="M967 230 L979 240 L967 250"/>
  </g>
  <rect x="80" y="360" width="1040" height="74" rx="14" fill="#e0f2fe"/>
  <text x="112" y="406" fill="#075985" font-size="24" font-family="Microsoft YaHei, sans-serif">建议默认模式：Codex 只新增文章与配图，不自动修改旧文件、不自动提交、不自动部署。</text>
</svg>
